<?xml version="1.0" encoding="UTF-8" standalone="no"?>
<!-- Created with Inkscape (http://www.inkscape.org/) -->

<svg
   width="121.19812mm"
   height="114.6687mm"
   viewBox="0 0 121.19812 114.6687"
   version="1.1"
   id="svg1"
   xmlns="http://www.w3.org/2000/svg"
   xmlns:svg="http://www.w3.org/2000/svg">
  <defs
     id="defs1" />
  <g
     id="layer1"
     transform="translate(-31.490711,-75.669666)">
    <g
       id="g2"
       transform="matrix(0.18833372,0,0,0.18833372,-92.676298,30.602816)">
      <path
         class="cls-3"
         d="M 940.03,677.32 800.95,816.4 c -32.41,32.41 -84.94,32.41 -117.35,0 v 0 c -32.41,-32.41 -32.41,-84.94 0,-117.35 L 822.68,559.97 Z"
         id="path1"
         style="fill:#120180;stroke-width:0px" />
      <path
         class="cls-3"
         d="m 1037.02,734.37 -55.76,-55.76 117.35,-117.35 55.76,55.76 c 32.41,32.41 32.41,84.94 0,117.35 v 0 c -32.41,32.41 -84.94,32.41 -117.35,0 z"
         id="path2"
         style="fill:#120180;stroke-width:0px" />
    </g>
    <g
       id="g4"
       transform="matrix(0.18833372,0,0,0.18833372,-92.676298,30.602816)">
      <path
         class="cls-1"
         d="M 960,657.35 765.63,462.98 c -32.41,-32.41 -32.41,-84.94 0,-117.35 v 0 c 32.41,-32.41 84.94,-32.41 117.35,0 L 1077.35,540 Z"
         id="path3"
         style="fill:#00cd93;stroke-width:0px" />
      <path
         class="cls-2"
         d="M 1236.4,380.95 960,657.35 842.65,540 1119.05,263.6 c 32.41,-32.41 84.94,-32.41 117.35,0 v 0 c 32.41,32.41 32.41,84.94 0,117.35 z"
         id="path4"
         style="fill:#5ae280;stroke-width:0px" />
      <path
         class="cls-2"
         d="m 1302.661,652.46579 0.1601,195.60625 -71.0579,0.0795 -0.1601,-195.60625 c -0.019,-22.93632 15.8701,-41.54164 35.495,-41.56358 v 0 c 19.6249,-0.022 35.5441,18.54783 35.5629,41.48415 z"
         id="path4-4"
         style="fill:#5ae280;stroke-width:0px" />
      <path
         class="cls-2"
         d="m 1224.9028,685.09483 0.1601,161.09031 -71.0579,0.0655 -0.1601,-161.09031 c -0.019,-18.88906 15.8701,-34.21135 35.495,-34.22942 v 0 c 19.6249,-0.0181 35.5441,15.27495 35.5629,34.16401 z"
         id="path4-4-7"
         style="fill:#5ae280;stroke-width:0px" />
      <path
         class="cls-2"
         d="m 1145.5314,724.85768 0.1601,121.86764 -71.0579,0.0495 -0.1601,-121.86764 c -0.019,-14.28991 15.8701,-25.88149 35.495,-25.89516 v 0 c 19.6249,-0.0137 35.5441,11.55576 35.5629,25.84567 z"
         id="path4-4-7-2"
         style="fill:#5ae280;stroke-width:0px" />
    </g>
  </g>
</svg>
