<?xml version="1.0" encoding="UTF-8" standalone="no"?>
<svg
   viewBox="0 0 300 299.99999"
   height="300"
   width="300"
   xml:space="preserve"
   id="svg2"
   version="1.1"
   sodipodi:docname="icono-perfil.svg"
   inkscape:version="1.4 (86a8ad7, 2024-10-11)"
   xmlns:inkscape="http://www.inkscape.org/namespaces/inkscape"
   xmlns:sodipodi="http://sodipodi.sourceforge.net/DTD/sodipodi-0.dtd"
   xmlns="http://www.w3.org/2000/svg"
   xmlns:svg="http://www.w3.org/2000/svg"
   xmlns:rdf="http://www.w3.org/1999/02/22-rdf-syntax-ns#"
   xmlns:cc="http://creativecommons.org/ns#"
   xmlns:dc="http://purl.org/dc/elements/1.1/"><sodipodi:namedview
     id="namedview1"
     pagecolor="#ffffff"
     bordercolor="#000000"
     borderopacity="0.25"
     inkscape:showpageshadow="2"
     inkscape:pageopacity="0.0"
     inkscape:pagecheckerboard="0"
     inkscape:deskcolor="#d1d1d1"
     inkscape:zoom="0.81343789"
     inkscape:cx="470.22643"
     inkscape:cy="245.25536"
     inkscape:window-width="1920"
     inkscape:window-height="991"
     inkscape:window-x="-9"
     inkscape:window-y="-9"
     inkscape:window-maximized="1"
     inkscape:current-layer="g12" /><metadata
     id="metadata8"><rdf:RDF><cc:Work
         rdf:about=""><dc:format>image/svg+xml</dc:format><dc:type
           rdf:resource="http://purl.org/dc/dcmitype/StillImage" /></cc:Work></rdf:RDF></metadata><defs
     id="defs6" /><g
     transform="matrix(1.3333333,0,0,-1.3333333,0,1954.6667)"
     id="g10"><g
       transform="scale(0.1)"
       id="g12"><path
         id="path18"
         style="fill:#cccccc;fill-opacity:1;fill-rule:nonzero;stroke:none;stroke-width:0.231537"
         d="m 2159.7428,13516.705 c 0,-331.63 -154.2501,-627.234 -394.933,-818.97 -178.7699,-142.465 -405.2596,-227.578 -651.6152,-227.578 -246.3556,0 -472.84527,85.113 -651.61518,227.578 -240.68286,191.736 -394.932978,487.34 -394.932978,818.97 0,577.986 468.561878,1046.549 1046.548158,1046.549 577.9863,0 1046.5482,-468.563 1046.5482,-1046.549" /><path
         id="path20"
         style="fill:#0a2539;fill-opacity:1;fill-rule:nonzero;stroke:none;stroke-width:0.231537"
         d="m 1553.1154,13750.558 c 0,-242.961 -196.9595,-439.921 -439.9208,-439.921 -242.9613,0 -439.9207,196.96 -439.9207,439.921 0,242.961 196.9594,439.92 439.9207,439.92 242.9613,0 439.9208,-196.959 439.9208,-439.92" /><path
         id="path22"
         style="fill:#0a2539;fill-opacity:1;fill-rule:nonzero;stroke:none;stroke-width:0.231537"
         d="m 1764.8098,12697.735 c -178.7699,-142.465 -405.2596,-227.578 -651.6152,-227.578 -246.3556,0 -472.84527,85.113 -651.61518,227.578 84.62689,279.65 344.34218,483.241 651.61518,483.241 307.2731,0 566.9883,-203.591 651.6152,-483.241" /></g></g></svg>
