<?xml version="1.0" encoding="UTF-8" standalone="no"?>
<!-- Created with Inkscape (http://www.inkscape.org/) -->

<svg
   width="122.78069mm"
   height="35.209675mm"
   viewBox="0 0 122.78069 35.209675"
   version="1.1"
   id="svg1"
   xmlns="http://www.w3.org/2000/svg"
   xmlns:svg="http://www.w3.org/2000/svg">
  <defs
     id="defs1" />
  <g
     id="layer1"
     transform="translate(-43.957609,-130.4406)">
    <g
       id="g5"
       transform="matrix(0.08991464,0,0,0.08991464,19.030124,99.491533)"
       style="fill:#ececec;fill-opacity:1">
      <g
         id="g2"
         style="fill:#ececec;fill-opacity:1">
        <path
           class="cls-3"
           d="m 460.03,629.41 -90.56,90.56 c -21.1,21.1 -55.31,21.1 -76.41,0 v 0 c -21.1,-21.1 -21.1,-55.31 0,-76.41 L 383.62,553 Z"
           id="path1"
           style="fill:#ececec;fill-opacity:1;stroke-width:0px" />
        <path
           class="cls-3"
           d="m 523.18,666.56 -36.3,-36.3 76.41,-76.41 36.3,36.3 c 21.1,21.1 21.1,55.31 0,76.41 v 0 c -21.1,21.1 -55.31,21.1 -76.41,0 z"
           id="path2"
           style="fill:#ececec;fill-opacity:1;stroke-width:0px" />
      </g>
      <g
         id="g4"
         style="fill:#ececec;fill-opacity:1">
        <path
           class="cls-1"
           d="M 473.04,616.41 346.49,489.86 c -21.1,-21.1 -21.1,-55.31 0,-76.41 v 0 c 21.1,-21.1 55.31,-21.1 76.41,0 L 549.45,540 Z"
           id="path3"
           style="fill:#ececec;fill-opacity:1;stroke-width:0px" />
        <path
           class="cls-2"
           d="M 653,436.44 473.03,616.41 396.62,540 576.59,360.03 c 21.1,-21.1 55.31,-21.1 76.41,0 v 0 c 21.1,21.1 21.1,55.31 0,76.41 z"
           id="path4"
           style="fill:#ececec;fill-opacity:1;stroke-width:0px" />
      </g>
    </g>
    <g
       id="g8"
       transform="matrix(0.08991464,0,0,0.08991464,19.030124,99.491533)"
       style="fill:#ececec;fill-opacity:1">
      <path
         class="cls-4"
         d="m 787.57,455.43 36.25,52.73 2.64,5.79 3.3,-5.79 35.92,-52.73 h 46.46 l -59.98,83.92 60.97,84.56 h -46.47 l -37.24,-52.41 -2.97,-5.47 -2.64,5.47 -36.91,52.41 h -46.47 l 60.97,-83.6 -59.98,-84.89 h 46.14 z"
         id="path5"
         style="fill:#ececec;fill-opacity:1;stroke-width:0px" />
      <path
         class="cls-4"
         d="M 945.76,560.91 V 455.43 h 44.16 v 95.91 c 0,12.83 2.42,22.51 7.25,29.03 4.83,6.52 11.97,9.78 21.42,9.78 5.71,0 11.37,-1.11 16.97,-3.34 5.6,-2.22 10.77,-5.56 15.49,-10.01 4.72,-4.46 8.73,-10.07 12.03,-16.86 V 455.42 h 44.16 v 119.95 c 0,4.49 0.82,7.7 2.47,9.62 1.65,1.93 4.34,3.1 8.08,3.53 v 35.39 c -4.4,0.65 -8.08,1.14 -11.04,1.46 -2.96,0.33 -5.66,0.49 -8.08,0.49 -7.91,0 -14.33,-1.77 -19.28,-5.31 -4.94,-3.54 -7.86,-8.42 -8.73,-14.63 l -0.99,-13.49 c -7.69,11.36 -17.58,19.99 -29.66,25.89 -12.08,5.89 -25.37,8.84 -39.87,8.84 -17.8,0 -31.31,-5.62 -40.54,-16.88 -9.23,-11.26 -13.84,-27.71 -13.84,-49.37 z"
         id="path6"
         style="fill:#ececec;fill-opacity:1;stroke-width:0px" />
      <path
         class="cls-4"
         d="m 1432.5,623.92 h -44.16 v -94.06 c 0,-13.22 -2.36,-22.98 -7.09,-29.27 -4.73,-6.29 -11.26,-9.44 -19.61,-9.44 -8.35,0 -16.76,3.26 -24.55,9.76 -7.8,6.51 -13.35,14.98 -16.65,25.43 v 97.59 h -44.16 v -94.06 c 0,-13.44 -2.36,-23.25 -7.09,-29.44 -4.73,-6.19 -11.26,-9.28 -19.61,-9.28 -8.35,0 -16.76,3.17 -24.55,9.51 -7.8,6.34 -13.35,14.69 -16.64,25.04 v 98.22 h -44.16 V 455.43 h 39.87 v 31.43 c 6.59,-10.91 15.38,-19.31 26.36,-25.2 10.99,-5.88 23.62,-8.83 37.9,-8.83 14.28,0 25.43,3.42 33.45,10.27 8.02,6.85 13.13,15.3 15.32,25.36 7.03,-11.56 15.98,-20.38 26.86,-26.48 10.88,-6.1 23.12,-9.15 36.75,-9.15 10.76,0 19.49,1.88 26.2,5.62 6.7,3.74 11.91,8.78 15.65,15.09 3.74,6.31 6.32,13.43 7.75,21.35 1.42,7.92 2.14,15.94 2.14,24.07 v 104.96 z"
         id="path7"
         style="fill:#ececec;fill-opacity:1;stroke-width:0px" />
      <path
         class="cls-4"
         d="m 1472.38,574.24 c 0,-10.91 3.13,-20.47 9.39,-28.71 6.26,-8.23 14.99,-14.59 26.2,-19.09 11.2,-4.49 24.06,-6.74 38.56,-6.74 7.25,0 14.61,0.54 22.08,1.62 7.47,1.09 13.95,2.82 19.45,5.2 v -9.05 c 0,-10.62 -3.24,-18.8 -9.72,-24.54 -6.48,-5.74 -16.1,-8.61 -28.83,-8.61 -9.45,0 -18.46,1.62 -27.03,4.87 -8.57,3.25 -17.58,8.01 -27.02,14.28 l -14.17,-28.57 c 11.42,-7.36 23.12,-12.87 35.1,-16.56 11.97,-3.68 24.55,-5.52 37.73,-5.52 24.6,0 43.77,5.97 57.51,17.93 13.72,11.95 20.59,29.01 20.59,51.2 v 53.45 c 0,4.48 0.83,7.69 2.47,9.6 1.65,1.92 4.33,3.09 8.07,3.52 v 35.39 c -3.95,0.65 -7.53,1.19 -10.71,1.62 -3.19,0.43 -5.88,0.65 -8.08,0.65 -8.79,0 -15.44,-1.95 -19.94,-5.84 -4.51,-3.9 -7.31,-8.65 -8.4,-14.28 l -0.99,-8.76 c -7.47,9.53 -16.81,16.88 -28.01,22.07 -11.21,5.19 -22.63,7.79 -34.28,7.79 -11.65,0 -21.7,-2.3 -30.81,-6.89 -9.12,-4.6 -16.26,-10.91 -21.42,-18.93 -5.16,-8.02 -7.74,-17.05 -7.74,-27.11 z m 107.44,8.45 c 2.41,-2.53 4.39,-5.06 5.93,-7.59 1.53,-2.53 2.31,-4.85 2.31,-6.96 v -16.78 c -5.27,-2.11 -10.99,-3.74 -17.14,-4.91 -6.15,-1.16 -11.98,-1.74 -17.47,-1.74 -11.43,0 -20.82,2.37 -28.18,7.12 -7.36,4.75 -11.04,11.03 -11.04,18.83 0,4.22 1.21,8.23 3.63,12.02 2.42,3.8 5.93,6.86 10.54,9.18 4.62,2.32 10.1,3.48 16.48,3.48 6.38,0 13.07,-1.21 19.45,-3.64 6.37,-2.42 11.53,-5.43 15.49,-9.02 z"
         id="path8"
         style="fill:#ececec;fill-opacity:1;stroke-width:0px" />
    </g>
  </g>
</svg>
