<?xml version="1.0" encoding="UTF-8" standalone="no"?>
<!-- Created with Inkscape (http://www.inkscape.org/) -->

<svg
   width="361.29514mm"
   height="103.60818mm"
   viewBox="0 0 361.29514 103.60818"
   version="1.1"
   id="svg1"
   xmlns="http://www.w3.org/2000/svg"
   xmlns:svg="http://www.w3.org/2000/svg">
  <defs
     id="defs1" />
  <g
     id="layer1"
     transform="translate(-99.218747,-124.61875)">
    <g
       id="g5"
       transform="matrix(0.26458333,0,0,0.26458333,25.86699,33.547844)">
      <g
         id="g2">
        <path
           class="cls-3"
           d="m 460.03,629.41 -90.56,90.56 c -21.1,21.1 -55.31,21.1 -76.41,0 v 0 c -21.1,-21.1 -21.1,-55.31 0,-76.41 L 383.62,553 Z"
           id="path1"
           style="fill:#120180;stroke-width:0px" />
        <path
           class="cls-3"
           d="m 523.18,666.56 -36.3,-36.3 76.41,-76.41 36.3,36.3 c 21.1,21.1 21.1,55.31 0,76.41 v 0 c -21.1,21.1 -55.31,21.1 -76.41,0 z"
           id="path2"
           style="fill:#120180;stroke-width:0px" />
      </g>
      <g
         id="g4">
        <path
           class="cls-1"
           d="M 473.04,616.41 346.49,489.86 c -21.1,-21.1 -21.1,-55.31 0,-76.41 v 0 c 21.1,-21.1 55.31,-21.1 76.41,0 L 549.45,540 Z"
           id="path3"
           style="fill:#00cd93;stroke-width:0px" />
        <path
           class="cls-2"
           d="M 653,436.44 473.03,616.41 396.62,540 576.59,360.03 c 21.1,-21.1 55.31,-21.1 76.41,0 v 0 c 21.1,21.1 21.1,55.31 0,76.41 z"
           id="path4"
           style="fill:#5ae280;stroke-width:0px" />
      </g>
    </g>
    <path
       class="cls-4"
       d="m 234.24488,154.04703 9.59115,13.95148 0.6985,1.53194 0.87312,-1.53194 9.50384,-13.95148 h 12.29254 l -15.86971,22.20383 16.13165,22.37317 h -12.29519 l -9.85308,-13.86681 -0.78582,-1.44727 -0.6985,1.44727 -9.76577,13.86681 h -12.29518 l 16.13164,-22.11917 -15.86971,-22.46048 h 12.20788 z"
       id="path5"
       style="fill:#ffffff;stroke-width:0px" />
    <path
       class="cls-4"
       d="m 276.09932,181.95528 v -27.90825 h 11.684 v 25.37619 c 0,3.3946 0.64029,5.95577 1.91823,7.68085 1.27794,1.72508 3.16706,2.58763 5.66737,2.58763 1.51077,0 3.00832,-0.29369 4.48998,-0.88371 1.48167,-0.58738 2.84957,-1.47109 4.0984,-2.64848 1.24883,-1.18004 2.30981,-2.66436 3.18294,-4.46088 v -27.65425 h 11.684 v 31.73677 c 0,1.18798 0.21695,2.0373 0.65352,2.5453 0.43656,0.51064 1.14829,0.8202 2.13783,0.93398 v 9.3636 c -1.16417,0.17198 -2.13783,0.30162 -2.921,0.38629 -0.78317,0.0873 -1.49754,0.12965 -2.13783,0.12965 -2.09286,0 -3.79148,-0.46832 -5.10117,-1.40494 -1.30704,-0.93663 -2.07962,-2.22779 -2.30981,-3.87085 l -0.26194,-3.56923 c -2.03465,3.00566 -4.65137,5.28902 -7.84754,6.85006 -3.19617,1.55839 -6.71248,2.33892 -10.54894,2.33892 -4.70958,0 -8.2841,-1.48696 -10.72621,-4.46617 -2.4421,-2.97921 -3.66183,-7.33161 -3.66183,-13.06248 z"
       id="path6"
       style="fill:#ffffff;stroke-width:0px" />
    <path
       class="cls-4"
       d="m 404.88261,198.62668 h -11.684 v -24.88671 c 0,-3.49779 -0.62442,-6.08013 -1.8759,-7.74436 -1.25147,-1.66423 -2.9792,-2.49766 -5.18847,-2.49766 -2.20928,0 -4.43442,0.86254 -6.49553,2.58233 -2.06375,1.72244 -3.53218,3.96346 -4.40531,6.72835 v 25.82069 h -11.684 v -24.88671 c 0,-3.556 -0.62441,-6.15156 -1.87589,-7.78933 -1.25148,-1.63777 -2.97921,-2.45533 -5.18848,-2.45533 -2.20927,0 -4.43442,0.83873 -6.49552,2.51618 -2.06375,1.67746 -3.53219,3.88673 -4.40267,6.62517 v 25.98738 h -11.684 v -44.57965 h 10.54894 v 8.31585 c 1.7436,-2.8866 4.06929,-5.1091 6.97441,-6.6675 2.90778,-1.55575 6.24946,-2.33627 10.02771,-2.33627 3.77825,0 6.72836,0.90488 8.85031,2.71727 2.12196,1.8124 3.47398,4.04813 4.05342,6.70984 1.86002,-3.05859 4.22804,-5.39221 7.10671,-7.00617 2.87867,-1.61396 6.11717,-2.42094 9.72344,-2.42094 2.84691,0 5.15673,0.49742 6.93208,1.48696 1.77271,0.98954 3.15119,2.32304 4.14073,3.99256 0.98954,1.66952 1.67217,3.55336 2.05052,5.64886 0.37571,2.0955 0.56621,4.21746 0.56621,6.36852 v 27.77067 z"
       id="path7"
       style="fill:#ffffff;stroke-width:0px" />
    <path
       class="cls-4"
       d="m 415.43419,185.48218 c 0,-2.88661 0.82815,-5.41603 2.48444,-7.59619 1.65629,-2.17752 3.96611,-3.86027 6.93208,-5.0509 2.96334,-1.18798 6.36588,-1.78329 10.20234,-1.78329 1.91823,0 3.86556,0.14288 5.842,0.42863 1.97643,0.28839 3.69093,0.74612 5.14614,1.37583 v -2.39448 c 0,-2.80988 -0.85725,-4.97417 -2.57175,-6.49288 -1.7145,-1.5187 -4.25979,-2.27806 -7.62793,-2.27806 -2.50032,0 -4.88421,0.42863 -7.15169,1.28852 -2.26748,0.8599 -4.65138,2.11932 -7.14904,3.77825 l -3.74915,-7.55914 c 3.02154,-1.94734 6.11717,-3.40519 9.28688,-4.3815 3.16706,-0.97367 6.49552,-1.4605 9.98272,-1.4605 6.50875,0 11.58082,1.57956 15.21619,4.74398 3.63009,3.16177 5.44777,7.67556 5.44777,13.54666 v 14.14198 c 0,1.18534 0.21961,2.03465 0.65352,2.54 0.43657,0.508 1.14565,0.81756 2.13519,0.93134 v 9.3636 c -1.0451,0.17198 -1.99231,0.31485 -2.83369,0.42862 -0.84402,0.11378 -1.55575,0.17198 -2.13783,0.17198 -2.32569,0 -4.08517,-0.51593 -5.27579,-1.54516 -1.19327,-1.03188 -1.93411,-2.28865 -2.2225,-3.77825 l -0.26194,-2.31775 c -1.97644,2.52148 -4.44764,4.46616 -7.41098,5.83935 -2.96598,1.37319 -5.98752,2.06111 -9.06991,2.06111 -3.0824,0 -5.74146,-0.60855 -8.15182,-1.82298 -2.413,-1.21709 -4.30212,-2.88661 -5.66737,-5.00857 -1.36525,-2.12195 -2.04788,-4.51114 -2.04788,-7.17285 z m 28.42684,2.23572 c 0.63764,-0.66939 1.16152,-1.33879 1.56898,-2.00818 0.40481,-0.6694 0.61118,-1.28323 0.61118,-1.8415 v -4.43971 c -1.39435,-0.55827 -2.90777,-0.98954 -4.53496,-1.29911 -1.62718,-0.30691 -3.1697,-0.46037 -4.62227,-0.46037 -3.02418,0 -5.50862,0.62706 -7.45595,1.88383 -1.94734,1.25677 -2.921,2.91836 -2.921,4.98211 0,1.11654 0.32014,2.17752 0.96043,3.18029 0.64029,1.00542 1.56898,1.81504 2.78871,2.42887 1.22238,0.61384 2.67229,0.92075 4.36033,0.92075 1.68805,0 3.45811,-0.32014 5.14615,-0.96308 1.6854,-0.64029 3.05065,-1.43669 4.0984,-2.38654 z"
       id="path8"
       style="fill:#ffffff;stroke-width:0px" />
  </g>
</svg>
